<?xml version="1.0" encoding="UTF-8" standalone="no"?>
<!-- Created with Inkscape (http://www.inkscape.org/) -->

<svg
   xmlns:dc="http://purl.org/dc/elements/1.1/"
   xmlns:cc="http://creativecommons.org/ns#"
   xmlns:rdf="http://www.w3.org/1999/02/22-rdf-syntax-ns#"
   xmlns:svg="http://www.w3.org/2000/svg"
   xmlns="http://www.w3.org/2000/svg"
   xmlns:sodipodi="http://sodipodi.sourceforge.net/DTD/sodipodi-0.dtd"
   xmlns:inkscape="http://www.inkscape.org/namespaces/inkscape"
   version="1.0"
   width="460.46832"
   height="286.06512"
   id="svg2"
   inkscape:version="0.92.3 (2405546, 2018-03-11)"
   sodipodi:docname="processador_DiagramaBloco-1.svg">
  <metadata
     id="metadata54">
    <rdf:RDF>
      <cc:Work
         rdf:about="">
        <dc:format>image/svg+xml</dc:format>
        <dc:type
           rdf:resource="http://purl.org/dc/dcmitype/StillImage" />
        <dc:title></dc:title>
      </cc:Work>
    </rdf:RDF>
  </metadata>
  <sodipodi:namedview
     pagecolor="#ffffff"
     bordercolor="#666666"
     borderopacity="1"
     objecttolerance="10"
     gridtolerance="10"
     guidetolerance="10"
     inkscape:pageopacity="0"
     inkscape:pageshadow="2"
     inkscape:window-width="1920"
     inkscape:window-height="1031"
     id="namedview52"
     showgrid="false"
     inkscape:zoom="2.3117429"
     inkscape:cx="238.56459"
     inkscape:cy="131.2856"
     inkscape:window-x="1920"
     inkscape:window-y="30"
     inkscape:window-maximized="1"
     inkscape:current-layer="svg2"
     fit-margin-top="10"
     fit-margin-left="10"
     fit-margin-right="10"
     fit-margin-bottom="10"
     showguides="true"
     inkscape:guide-bbox="true" />
  <defs
     id="defs5">
    <marker
       inkscape:stockid="Arrow2Send"
       orient="auto"
       refY="0"
       refX="0"
       id="marker14264"
       style="overflow:visible"
       inkscape:isstock="true">
      <path
         inkscape:connector-curvature="0"
         id="path14262"
         style="fill:#0000dc;fill-opacity:1;fill-rule:evenodd;stroke:#0000dc;stroke-width:0.625;stroke-linejoin:round;stroke-opacity:1"
         d="M 8.7185878,4.0337352 -2.2072895,0.01601326 8.7185884,-4.0017078 c -1.7454984,2.3720609 -1.7354408,5.6174519 -6e-7,8.035443 z"
         transform="matrix(-0.3,0,0,-0.3,0.69,0)" />
    </marker>
    <marker
       inkscape:isstock="true"
       style="overflow:visible"
       id="marker14128"
       refX="0"
       refY="0"
       orient="auto"
       inkscape:stockid="Arrow2Sstart">
      <path
         inkscape:connector-curvature="0"
         transform="matrix(0.3,0,0,0.3,-0.69,0)"
         d="M 8.7185878,4.0337352 -2.2072895,0.01601326 8.7185884,-4.0017078 c -1.7454984,2.3720609 -1.7354408,5.6174519 -6e-7,8.035443 z"
         style="fill:#0000dc;fill-opacity:1;fill-rule:evenodd;stroke:#0000dc;stroke-width:0.625;stroke-linejoin:round;stroke-opacity:1"
         id="path14126" />
    </marker>
    <marker
       inkscape:stockid="Arrow2Sstart"
       orient="auto"
       refY="0"
       refX="0"
       id="marker12429"
       style="overflow:visible"
       inkscape:isstock="true">
      <path
         id="path12427"
         style="fill:#0000dc;fill-opacity:1;fill-rule:evenodd;stroke:#0000dc;stroke-width:0.625;stroke-linejoin:round;stroke-opacity:1"
         d="M 8.7185878,4.0337352 -2.2072895,0.01601326 8.7185884,-4.0017078 c -1.7454984,2.3720609 -1.7354408,5.6174519 -6e-7,8.035443 z"
         transform="matrix(0.3,0,0,0.3,-0.69,0)"
         inkscape:connector-curvature="0" />
    </marker>
    <marker
       inkscape:stockid="Arrow1Sstart"
       orient="auto"
       refY="0"
       refX="0"
       id="marker12299"
       style="overflow:visible"
       inkscape:isstock="true">
      <path
         id="path12297"
         d="M 0,0 5,-5 -12.5,0 5,5 Z"
         style="fill:#0000dc;fill-opacity:1;fill-rule:evenodd;stroke:#0000dc;stroke-width:1.00000003pt;stroke-opacity:1"
         transform="matrix(0.2,0,0,0.2,1.2,0)"
         inkscape:connector-curvature="0" />
    </marker>
    <marker
       inkscape:stockid="Arrow2Send"
       orient="auto"
       refY="0"
       refX="0"
       id="marker9996"
       style="overflow:visible"
       inkscape:isstock="true">
      <path
         inkscape:connector-curvature="0"
         id="path9994"
         style="fill:#000000;fill-opacity:1;fill-rule:evenodd;stroke:#000000;stroke-width:0.625;stroke-linejoin:round;stroke-opacity:1"
         d="M 8.7185878,4.0337352 -2.2072895,0.01601326 8.7185884,-4.0017078 c -1.7454984,2.3720609 -1.7354408,5.6174519 -6e-7,8.035443 z"
         transform="matrix(-0.3,0,0,-0.3,0.69,0)" />
    </marker>
    <marker
       inkscape:isstock="true"
       style="overflow:visible"
       id="marker9858"
       refX="0"
       refY="0"
       orient="auto"
       inkscape:stockid="Arrow2Send"
       inkscape:collect="always">
      <path
         transform="matrix(-0.3,0,0,-0.3,0.69,0)"
         d="M 8.7185878,4.0337352 -2.2072895,0.01601326 8.7185884,-4.0017078 c -1.7454984,2.3720609 -1.7354408,5.6174519 -6e-7,8.035443 z"
         style="fill:#000000;fill-opacity:1;fill-rule:evenodd;stroke:#000000;stroke-width:0.625;stroke-linejoin:round;stroke-opacity:1"
         id="path9856"
         inkscape:connector-curvature="0" />
    </marker>
    <marker
       inkscape:stockid="Arrow2Send"
       orient="auto"
       refY="0"
       refX="0"
       id="marker9246"
       style="overflow:visible"
       inkscape:isstock="true"
       inkscape:collect="always">
      <path
         inkscape:connector-curvature="0"
         id="path9244"
         style="fill:#000000;fill-opacity:1;fill-rule:evenodd;stroke:#000000;stroke-width:0.625;stroke-linejoin:round;stroke-opacity:1"
         d="M 8.7185878,4.0337352 -2.2072895,0.01601326 8.7185884,-4.0017078 c -1.7454984,2.3720609 -1.7354408,5.6174519 -6e-7,8.035443 z"
         transform="matrix(-0.3,0,0,-0.3,0.69,0)" />
    </marker>
    <marker
       inkscape:stockid="Arrow1Sstart"
       orient="auto"
       refY="0"
       refX="0"
       id="marker7206"
       style="overflow:visible"
       inkscape:isstock="true">
      <path
         id="path7204"
         d="M 0,0 5,-5 -12.5,0 5,5 Z"
         style="fill:#0000dc;fill-opacity:1;fill-rule:evenodd;stroke:#0000dc;stroke-width:1.00000003pt;stroke-opacity:1"
         transform="matrix(0.2,0,0,0.2,1.2,0)"
         inkscape:connector-curvature="0" />
    </marker>
    <marker
       inkscape:stockid="Arrow1Sstart"
       orient="auto"
       refY="0"
       refX="0"
       id="Arrow1Sstart"
       style="overflow:visible"
       inkscape:isstock="true">
      <path
         id="path962"
         d="M 0,0 5,-5 -12.5,0 5,5 Z"
         style="fill:#0000dc;fill-opacity:1;fill-rule:evenodd;stroke:#0000dc;stroke-width:1.00000003pt;stroke-opacity:1"
         transform="matrix(0.2,0,0,0.2,1.2,0)"
         inkscape:connector-curvature="0" />
    </marker>
    <marker
       inkscape:isstock="true"
       style="overflow:visible"
       id="marker6102"
       refX="0"
       refY="0"
       orient="auto"
       inkscape:stockid="Arrow2Send">
      <path
         transform="matrix(-0.3,0,0,-0.3,0.69,0)"
         d="M 8.7185878,4.0337352 -2.2072895,0.01601326 8.7185884,-4.0017078 c -1.7454984,2.3720609 -1.7354408,5.6174519 -6e-7,8.035443 z"
         style="fill:#0000dc;fill-opacity:1;fill-rule:evenodd;stroke:#0000dc;stroke-width:0.625;stroke-linejoin:round;stroke-opacity:1"
         id="path6100"
         inkscape:connector-curvature="0" />
    </marker>
    <marker
       inkscape:isstock="true"
       style="overflow:visible"
       id="marker5168"
       refX="0"
       refY="0"
       orient="auto"
       inkscape:stockid="Arrow2Send">
      <path
         transform="matrix(-0.3,0,0,-0.3,0.69,0)"
         d="M 8.7185878,4.0337352 -2.2072895,0.01601326 8.7185884,-4.0017078 c -1.7454984,2.3720609 -1.7354408,5.6174519 -6e-7,8.035443 z"
         style="fill:#0000dc;fill-opacity:1;fill-rule:evenodd;stroke:#0000dc;stroke-width:0.625;stroke-linejoin:round;stroke-opacity:1"
         id="path5166"
         inkscape:connector-curvature="0" />
    </marker>
    <marker
       inkscape:isstock="true"
       style="overflow:visible"
       id="marker3789"
       refX="0"
       refY="0"
       orient="auto"
       inkscape:stockid="Arrow2Send">
      <path
         transform="matrix(-0.3,0,0,-0.3,0.69,0)"
         d="M 8.7185878,4.0337352 -2.2072895,0.01601326 8.7185884,-4.0017078 c -1.7454984,2.3720609 -1.7354408,5.6174519 -6e-7,8.035443 z"
         style="fill:#0000dc;fill-opacity:1;fill-rule:evenodd;stroke:#0000dc;stroke-width:0.625;stroke-linejoin:round;stroke-opacity:1"
         id="path3787"
         inkscape:connector-curvature="0" />
    </marker>
    <marker
       inkscape:isstock="true"
       style="overflow:visible"
       id="marker3333"
       refX="0"
       refY="0"
       orient="auto"
       inkscape:stockid="Arrow2Send"
       inkscape:collect="always">
      <path
         transform="matrix(-0.3,0,0,-0.3,0.69,0)"
         d="M 8.7185878,4.0337352 -2.2072895,0.01601326 8.7185884,-4.0017078 c -1.7454984,2.3720609 -1.7354408,5.6174519 -6e-7,8.035443 z"
         style="fill:#0000dc;fill-opacity:1;fill-rule:evenodd;stroke:#0000dc;stroke-width:0.625;stroke-linejoin:round;stroke-opacity:1"
         id="path3331"
         inkscape:connector-curvature="0" />
    </marker>
    <marker
       inkscape:stockid="Arrow2Send"
       orient="auto"
       refY="0"
       refX="0"
       id="Arrow2Send"
       style="overflow:visible"
       inkscape:isstock="true">
      <path
         id="path983"
         style="fill:#0000dc;fill-opacity:1;fill-rule:evenodd;stroke:#0000dc;stroke-width:0.625;stroke-linejoin:round;stroke-opacity:1"
         d="M 8.7185878,4.0337352 -2.2072895,0.01601326 8.7185884,-4.0017078 c -1.7454984,2.3720609 -1.7354408,5.6174519 -6e-7,8.035443 z"
         transform="matrix(-0.3,0,0,-0.3,0.69,0)"
         inkscape:connector-curvature="0" />
    </marker>
    <marker
       inkscape:stockid="Arrow2Mend"
       orient="auto"
       refY="0"
       refX="0"
       id="Arrow2Mend"
       style="overflow:visible"
       inkscape:isstock="true">
      <path
         id="path977"
         style="fill:#000000;fill-opacity:1;fill-rule:evenodd;stroke:#000000;stroke-width:0.625;stroke-linejoin:round;stroke-opacity:1"
         d="M 8.7185878,4.0337352 -2.2072895,0.01601326 8.7185884,-4.0017078 c -1.7454984,2.3720609 -1.7354408,5.6174519 -6e-7,8.035443 z"
         transform="scale(-0.6)"
         inkscape:connector-curvature="0" />
    </marker>
    <marker
       inkscape:stockid="Arrow2Lend"
       orient="auto"
       refY="0"
       refX="0"
       id="Arrow2Lend"
       style="overflow:visible"
       inkscape:isstock="true">
      <path
         id="path971"
         style="fill:#0000dc;fill-opacity:1;fill-rule:evenodd;stroke:#0000dc;stroke-width:0.625;stroke-linejoin:round;stroke-opacity:1"
         d="M 8.7185878,4.0337352 -2.2072895,0.01601326 8.7185884,-4.0017078 c -1.7454984,2.3720609 -1.7354408,5.6174519 -6e-7,8.035443 z"
         transform="matrix(-1.1,0,0,-1.1,-1.1,0)"
         inkscape:connector-curvature="0" />
    </marker>
    <marker
       inkscape:stockid="Arrow2Send"
       orient="auto"
       refY="0"
       refX="0"
       id="Arrow2Send-8"
       style="overflow:visible"
       inkscape:isstock="true"
       inkscape:collect="always">
      <path
         inkscape:connector-curvature="0"
         id="path983-1"
         style="fill:#0000dc;fill-opacity:1;fill-rule:evenodd;stroke:#0000dc;stroke-width:0.625;stroke-linejoin:round;stroke-opacity:1"
         d="M 8.7185878,4.0337352 -2.2072895,0.01601326 8.7185884,-4.0017078 c -1.7454984,2.3720609 -1.7354408,5.6174519 -6e-7,8.035443 z"
         transform="matrix(-0.3,0,0,-0.3,0.69,0)" />
    </marker>
    <marker
       inkscape:stockid="Arrow2Send"
       orient="auto"
       refY="0"
       refX="0"
       id="Arrow2Send-8-1"
       style="overflow:visible"
       inkscape:isstock="true"
       inkscape:collect="always">
      <path
         inkscape:connector-curvature="0"
         id="path983-1-9"
         style="fill:#0000dc;fill-opacity:1;fill-rule:evenodd;stroke:#0000dc;stroke-width:0.625;stroke-linejoin:round;stroke-opacity:1"
         d="M 8.7185878,4.0337352 -2.2072895,0.01601326 8.7185884,-4.0017078 c -1.7454984,2.3720609 -1.7354408,5.6174519 -6e-7,8.035443 z"
         transform="matrix(-0.3,0,0,-0.3,0.69,0)" />
    </marker>
    <marker
       inkscape:stockid="Arrow2Send"
       orient="auto"
       refY="0"
       refX="0"
       id="Arrow2Send-8-1-9"
       style="overflow:visible"
       inkscape:isstock="true">
      <path
         inkscape:connector-curvature="0"
         id="path983-1-9-3"
         style="fill:#0000dc;fill-opacity:1;fill-rule:evenodd;stroke:#0000dc;stroke-width:0.625;stroke-linejoin:round;stroke-opacity:1"
         d="M 8.7185878,4.0337352 -2.2072895,0.01601326 8.7185884,-4.0017078 c -1.7454984,2.3720609 -1.7354408,5.6174519 -6e-7,8.035443 z"
         transform="matrix(-0.3,0,0,-0.3,0.69,0)" />
    </marker>
    <marker
       inkscape:isstock="true"
       style="overflow:visible"
       id="marker5168-6"
       refX="0"
       refY="0"
       orient="auto"
       inkscape:stockid="Arrow2Send">
      <path
         transform="matrix(-0.3,0,0,-0.3,0.69,0)"
         d="M 8.7185878,4.0337352 -2.2072895,0.01601326 8.7185884,-4.0017078 c -1.7454984,2.3720609 -1.7354408,5.6174519 -6e-7,8.035443 z"
         style="fill:#000000;fill-opacity:1;fill-rule:evenodd;stroke:#000000;stroke-width:0.625;stroke-linejoin:round;stroke-opacity:1"
         id="path5166-6"
         inkscape:connector-curvature="0" />
    </marker>
    <marker
       inkscape:stockid="Arrow2Send"
       orient="auto"
       refY="0"
       refX="0"
       id="marker9996-0"
       style="overflow:visible"
       inkscape:isstock="true">
      <path
         inkscape:connector-curvature="0"
         id="path9994-0"
         style="fill:#000000;fill-opacity:1;fill-rule:evenodd;stroke:#000000;stroke-width:0.625;stroke-linejoin:round;stroke-opacity:1"
         d="M 8.7185878,4.0337352 -2.2072895,0.01601326 8.7185884,-4.0017078 c -1.7454984,2.3720609 -1.7354408,5.6174519 -6e-7,8.035443 z"
         transform="matrix(-0.3,0,0,-0.3,0.69,0)" />
    </marker>
    <marker
       inkscape:stockid="Arrow2Sstart"
       orient="auto"
       refY="0"
       refX="0"
       id="marker12429-6"
       style="overflow:visible"
       inkscape:isstock="true">
      <path
         id="path12427-2"
         style="fill:#0000dc;fill-opacity:1;fill-rule:evenodd;stroke:#0000dc;stroke-width:0.625;stroke-linejoin:round;stroke-opacity:1"
         d="M 8.7185878,4.0337352 -2.2072895,0.01601326 8.7185884,-4.0017078 c -1.7454984,2.3720609 -1.7354408,5.6174519 -6e-7,8.035443 z"
         transform="matrix(0.3,0,0,0.3,-0.69,0)"
         inkscape:connector-curvature="0" />
    </marker>
    <marker
       inkscape:isstock="true"
       style="overflow:visible"
       id="marker3333-6"
       refX="0"
       refY="0"
       orient="auto"
       inkscape:stockid="Arrow2Send"
       inkscape:collect="always">
      <path
         transform="matrix(-0.3,0,0,-0.3,0.69,0)"
         d="M 8.7185878,4.0337352 -2.2072895,0.01601326 8.7185884,-4.0017078 c -1.7454984,2.3720609 -1.7354408,5.6174519 -6e-7,8.035443 z"
         style="fill:#0000dc;fill-opacity:1;fill-rule:evenodd;stroke:#0000dc;stroke-width:0.625;stroke-linejoin:round;stroke-opacity:1"
         id="path3331-7"
         inkscape:connector-curvature="0" />
    </marker>
    <marker
       inkscape:stockid="Arrow2Send"
       orient="auto"
       refY="0"
       refX="0"
       id="Arrow2Send-8-9"
       style="overflow:visible"
       inkscape:isstock="true"
       inkscape:collect="always">
      <path
         inkscape:connector-curvature="0"
         id="path983-1-96"
         style="fill:#ff0000;fill-opacity:1;fill-rule:evenodd;stroke:#ff0000;stroke-width:0.625;stroke-linejoin:round;stroke-opacity:1"
         d="M 8.7185878,4.0337352 -2.2072895,0.01601326 8.7185884,-4.0017078 c -1.7454984,2.3720609 -1.7354408,5.6174519 -6e-7,8.035443 z"
         transform="matrix(-0.3,0,0,-0.3,0.69,0)" />
    </marker>
    <marker
       inkscape:stockid="Arrow2Send"
       orient="auto"
       refY="0"
       refX="0"
       id="Arrow2Send-8-9-2"
       style="overflow:visible"
       inkscape:isstock="true"
       inkscape:collect="always">
      <path
         inkscape:connector-curvature="0"
         id="path983-1-96-7"
         style="fill:#ff0000;fill-opacity:1;fill-rule:evenodd;stroke:#ff0000;stroke-width:0.625;stroke-linejoin:round;stroke-opacity:1"
         d="M 8.7185878,4.0337352 -2.2072895,0.01601326 8.7185884,-4.0017078 c -1.7454984,2.3720609 -1.7354408,5.6174519 -6e-7,8.035443 z"
         transform="matrix(-0.3,0,0,-0.3,0.69,0)" />
    </marker>
  </defs>
  <path
     sodipodi:nodetypes="ccccc"
     inkscape:connector-curvature="0"
     id="path2237"
     style="fill:none;fill-opacity:0.75;fill-rule:evenodd;stroke:#0000dc;stroke-width:3.99999976;stroke-linecap:butt;stroke-linejoin:round;stroke-miterlimit:4;stroke-dasharray:none;stroke-opacity:1;marker-end:url(#marker3789)"
     d="m 343.25413,261.25016 v 12.81495 h 105.2142 V 148.28303 l -45.67073,-0.0675" />
  <path
     sodipodi:nodetypes="ccc"
     inkscape:connector-curvature="0"
     id="path2239-4"
     style="fill:none;fill-opacity:0.75;fill-rule:evenodd;stroke:#000000;stroke-width:2;stroke-linecap:butt;stroke-linejoin:round;stroke-miterlimit:4;stroke-dasharray:4, 4;stroke-dashoffset:0;stroke-opacity:1;marker-end:url(#marker5168-6)"
     d="m 200.84539,167.58205 v 72.10176 H 310.4215" />
  <path
     style="fill:none;fill-rule:evenodd;stroke:#0000dc;stroke-width:4;stroke-linecap:butt;stroke-linejoin:miter;stroke-miterlimit:3.5;stroke-dasharray:none;stroke-opacity:1;marker-end:url(#Arrow2Send-8)"
     d="m 107.88597,148.81074 h 34.72038"
     id="path948-3"
     inkscape:connector-curvature="0"
     sodipodi:nodetypes="cc" />
  <path
     d="m 254.11092,140.48871 h 29.21312"
     style="fill:#000000;fill-opacity:1;fill-rule:evenodd;stroke:#000000;stroke-width:2;stroke-linecap:butt;stroke-linejoin:miter;stroke-miterlimit:4;stroke-dasharray:4, 4;stroke-dashoffset:0;stroke-opacity:1;marker-end:url(#marker9246)"
     id="path3857"
     inkscape:connector-curvature="0"
     sodipodi:nodetypes="cc" />
  <path
     sodipodi:nodetypes="ccc"
     inkscape:connector-curvature="0"
     id="path2239"
     style="fill:none;fill-opacity:0.75;fill-rule:evenodd;stroke:#0000dc;stroke-width:4;stroke-linecap:butt;stroke-linejoin:round;stroke-miterlimit:4;stroke-dasharray:none;stroke-opacity:1;marker-end:url(#marker5168)"
     d="M 201.41892,36.757358 H 56.735532 v 87.247312" />
  <g
     id="g893"
     transform="translate(-26.79488,118.78192)">
    <rect
       id="rect1308"
       style="opacity:1;fill:none;fill-opacity:1;fill-rule:evenodd;stroke:#000000;stroke-width:1.25;stroke-linecap:round;stroke-linejoin:miter;stroke-miterlimit:4;stroke-dasharray:none;stroke-dashoffset:0;stroke-opacity:1"
       y="10.625"
       x="37.41988"
       ry="9.999999"
       rx="10.00001"
       height="38.749992"
       width="97.25" />
    <text
       xml:space="preserve"
       id="text2249"
       style="font-style:normal;font-variant:normal;font-weight:normal;font-stretch:normal;line-height:0%;font-family:Arial;-inkscape-font-specification:'Arial, Normal';text-align:center;writing-mode:lr-tb;text-anchor:middle;fill:#000000;fill-opacity:1;stroke:none;stroke-width:1px;stroke-linecap:butt;stroke-linejoin:miter;stroke-opacity:1"
       y="26.160152"
       x="85.599564"><tspan
         style="font-size:16px;line-height:1"
         y="26.160152"
         x="85.599564"
         id="tspan4227"
         sodipodi:role="line">Busca</tspan><tspan
         style="font-size:16px;line-height:1"
         y="42.160152"
         x="85.599564"
         id="tspan4229"
         sodipodi:role="line">Instrução</tspan></text>
    <text
       xml:space="preserve"
       style="font-style:normal;font-variant:normal;font-weight:bold;font-stretch:normal;font-size:6.25px;line-height:100%;font-family:Arial;-inkscape-font-specification:'Arial, Bold';text-align:center;letter-spacing:0px;word-spacing:0px;writing-mode:lr-tb;text-anchor:middle;fill:#0000dc;fill-opacity:1;stroke:none;stroke-width:1px;stroke-linecap:butt;stroke-linejoin:miter;stroke-opacity:1"
       x="142.29214"
       y="78.307785"
       id="text22600"><tspan
         sodipodi:role="line"
         x="142.29214"
         y="78.307785"
         style="font-size:8px;line-height:110.00000238%;fill:#0000dc;fill-opacity:1"
         id="tspan22606">Barramento de Dados e Endereços</tspan></text>
    <text
       xml:space="preserve"
       style="font-style:normal;font-variant:normal;font-weight:bold;font-stretch:normal;font-size:6.25px;line-height:100%;font-family:Arial;-inkscape-font-specification:'Arial, Bold';text-align:center;letter-spacing:0px;word-spacing:0px;writing-mode:lr-tb;text-anchor:middle;fill:#000000;fill-opacity:1;stroke:none;stroke-width:1px;stroke-linecap:butt;stroke-linejoin:miter;stroke-opacity:1"
       x="120.5658"
       y="103.27912"
       id="text22600-9"><tspan
         sodipodi:role="line"
         x="120.5658"
         y="103.27912"
         style="font-size:8px;line-height:110.00000238%;fill:#000000;fill-opacity:1"
         id="tspan22606-8">Barramento de Controle</tspan></text>
  </g>
  <g
     id="g946"
     transform="translate(16.267498,-103.07365)">
    <rect
       id="rect2190"
       style="opacity:1;fill:none;fill-opacity:1;fill-rule:evenodd;stroke:#000000;stroke-width:1.24999988;stroke-linecap:round;stroke-linejoin:miter;stroke-miterlimit:4;stroke-dasharray:none;stroke-dashoffset:0;stroke-opacity:1"
       y="113.69865"
       x="185.76311"
       ry="10"
       rx="10.000018"
       height="52.378754"
       width="76.24073" />
    <text
       xml:space="preserve"
       id="text2255"
       style="font-style:normal;font-variant:normal;font-weight:normal;font-stretch:normal;line-height:0%;font-family:Arial;-inkscape-font-specification:'Arial, Normal';text-align:center;writing-mode:lr-tb;text-anchor:middle;fill:#000000;fill-opacity:1;stroke:none;stroke-width:1px;stroke-linecap:butt;stroke-linejoin:miter;stroke-opacity:1"
       y="137.6185"
       x="223.63347"><tspan
         style="font-size:16px;line-height:1"
         y="137.6185"
         x="223.63347"
         id="tspan4285"
         sodipodi:role="line">Interface</tspan><tspan
         style="font-size:16px;line-height:1"
         y="153.6185"
         x="223.63347"
         id="tspan4287"
         sodipodi:role="line">Memória</tspan></text>
  </g>
  <g
     id="g898"
     transform="translate(115.34252,56.489969)">
    <rect
       id="rect1310"
       style="opacity:1;fill:none;fill-opacity:1;fill-rule:evenodd;stroke:#000000;stroke-width:1.25;stroke-linecap:round;stroke-linejoin:miter;stroke-miterlimit:4;stroke-dasharray:none;stroke-dashoffset:0;stroke-opacity:1"
       y="72.916954"
       x="33.299625"
       ry="9.999999"
       rx="10.847363"
       height="38.749996"
       width="105.49051" />
    <text
       xml:space="preserve"
       id="text2265"
       style="font-style:normal;font-variant:normal;font-weight:normal;font-stretch:normal;line-height:0%;font-family:Arial;-inkscape-font-specification:'Arial, Normal';text-align:center;writing-mode:lr-tb;text-anchor:middle;fill:#000000;fill-opacity:1;stroke:none;stroke-width:1px;stroke-linecap:butt;stroke-linejoin:miter;stroke-opacity:1"
       y="98.022423"
       x="85.326126"><tspan
         style="font-size:16px;line-height:1"
         y="98.022423"
         x="85.326126"
         id="tspan4221"
         sodipodi:role="line">Decodifica</tspan></text>
  </g>
  <text
     x="380.95221"
     y="29.96534"
     style="font-style:normal;font-variant:normal;font-weight:normal;font-stretch:normal;line-height:0%;font-family:Arial;-inkscape-font-specification:'Arial, Normal';text-align:center;writing-mode:lr-tb;text-anchor:middle;fill:#000000;fill-opacity:1;stroke:none;stroke-width:1px;stroke-linecap:butt;stroke-linejoin:miter;stroke-opacity:1"
     id="text2304"
     xml:space="preserve"><tspan
       sodipodi:role="line"
       id="tspan4289"
       x="380.95221"
       y="33.274391"
       style="font-size:16px;line-height:1" /><tspan
       sodipodi:role="line"
       id="tspan4291"
       x="380.95221"
       y="42.377411"
       style="font-size:16px;line-height:1">Memória</tspan></text>
  <g
     id="g10573"
     transform="translate(-1.4296458,42.000006)">
    <path
       inkscape:connector-curvature="0"
       id="path948-3-6-3"
       d="m 369.69453,137.25243 v 22.61966"
       style="fill:none;fill-rule:evenodd;stroke:#0000dc;stroke-width:4.00000048;stroke-linecap:butt;stroke-linejoin:miter;stroke-miterlimit:3.5;stroke-dasharray:none;stroke-opacity:1;marker-end:url(#Arrow2Send-8-1-9)"
       sodipodi:nodetypes="cc" />
    <path
       inkscape:connector-curvature="0"
       id="path948-3-6"
       d="m 317.70683,137.403 v 22.34739"
       style="fill:none;fill-rule:evenodd;stroke:#0000dc;stroke-width:3.99999976;stroke-linecap:butt;stroke-linejoin:miter;stroke-miterlimit:3.5;stroke-dasharray:none;stroke-opacity:1;marker-end:url(#Arrow2Send-8-1)" />
    <g
       transform="translate(257.29553,-113.60178)"
       id="g2165">
      <g
         transform="translate(-181.83012,18.082566)"
         id="g5719"
         style="fill:none">
        <path
           d="m 257.52376,261.25356 10.8125,21 11.5625,-21 c 0,0 33.0625,1e-5 33.0625,1e-5 0,0 -22.75001,53.49286 -22.75001,53.49286 h -41.99998 c 0,0 -23.50001,-53.49286 -23.50001,-53.49286 0,0 32.8125,-1e-5 32.8125,-1e-5 z"
           style="opacity:1;fill:none;fill-opacity:1;fill-rule:evenodd;stroke:#000000;stroke-width:1.25;stroke-linecap:round;stroke-linejoin:round;stroke-miterlimit:4;stroke-dasharray:none;stroke-dashoffset:0;stroke-opacity:1"
           id="path4738"
           inkscape:connector-curvature="0" />
        <text
           x="269.66016"
           y="301.62891"
           style="font-style:normal;font-variant:normal;font-weight:normal;font-stretch:normal;font-size:16px;line-height:0%;font-family:Arial;text-align:center;writing-mode:lr-tb;text-anchor:middle;fill:none;fill-opacity:1;stroke:none;stroke-width:1px;stroke-linecap:butt;stroke-linejoin:miter;stroke-opacity:1"
           id="text4740"
           xml:space="preserve"><tspan
             x="269.66016"
             y="301.62891"
             id="tspan4742"
             style="fill:none">ALU</tspan></text>
      </g>
      <text
         x="85.492241"
         y="318.08792"
         style="font-style:normal;font-variant:normal;font-weight:normal;font-stretch:normal;line-height:0%;font-family:Arial;-inkscape-font-specification:'Arial, Normal';text-align:center;writing-mode:lr-tb;text-anchor:middle;fill:#000000;fill-opacity:1;stroke:none;stroke-width:1px;stroke-linecap:butt;stroke-linejoin:miter;stroke-opacity:1"
         id="text2304-8"
         xml:space="preserve"><tspan
           sodipodi:role="line"
           id="tspan4338"
           x="85.492241"
           y="318.08792"
           style="font-size:16px;line-height:1">ULA</tspan></text>
    </g>
  </g>
  <path
     inkscape:connector-curvature="0"
     id="path3329"
     d="m 292.21338,36.554353 h 39.93229"
     style="fill:none;fill-rule:evenodd;stroke:#0000dc;stroke-width:4;stroke-linecap:butt;stroke-linejoin:miter;stroke-miterlimit:3.5;stroke-dasharray:none;stroke-opacity:1;marker-start:url(#marker12429);marker-end:url(#marker3333)" />
  <path
     sodipodi:nodetypes="cc"
     inkscape:connector-curvature="0"
     id="path9854"
     style="fill:#000000;fill-opacity:1;fill-rule:evenodd;stroke:#000000;stroke-width:2;stroke-linecap:butt;stroke-linejoin:miter;stroke-miterlimit:4;stroke-dasharray:4, 4;stroke-dashoffset:0;stroke-opacity:1;marker-end:url(#marker9858)"
     d="m 254.11092,148.48871 h 29.21312" />
  <path
     d="m 254.11092,156.48871 h 29.21312"
     style="fill:#000000;fill-opacity:1;fill-rule:evenodd;stroke:#000000;stroke-width:2;stroke-linecap:butt;stroke-linejoin:miter;stroke-miterlimit:4;stroke-dasharray:4, 4;stroke-dashoffset:0;stroke-opacity:1;marker-end:url(#marker9996)"
     id="path9992"
     inkscape:connector-curvature="0"
     sodipodi:nodetypes="cc" />
  <path
     sodipodi:nodetypes="cccc"
     style="fill:none;fill-rule:evenodd;stroke:#0000dc;stroke-width:4;stroke-linecap:butt;stroke-linejoin:round;stroke-miterlimit:3.5;stroke-dasharray:none;stroke-opacity:1;marker-start:url(#marker14128);marker-end:url(#marker14264)"
     d="M 424.47936,141.92193 V 97.490343 l -184.93022,-0.006 V 68.556348"
     id="path14124"
     inkscape:connector-curvature="0" />
  <path
     d="M 13.93473,219.34452 H 43.14785"
     style="fill:#000000;fill-opacity:1;fill-rule:evenodd;stroke:#000000;stroke-width:2;stroke-linecap:butt;stroke-linejoin:miter;stroke-miterlimit:4;stroke-dasharray:4, 4;stroke-dashoffset:0;stroke-opacity:1;marker-end:url(#marker9996-0)"
     id="path9992-4"
     inkscape:connector-curvature="0"
     sodipodi:nodetypes="cc" />
  <path
     inkscape:connector-curvature="0"
     id="path3329-5"
     d="m 16.716491,194.41944 h 25.58019"
     style="fill:none;fill-rule:evenodd;stroke:#0000dc;stroke-width:2;stroke-linecap:butt;stroke-linejoin:miter;stroke-miterlimit:3.5;stroke-dasharray:none;stroke-opacity:1;marker-start:url(#marker12429-6);marker-end:url(#marker3333-6)" />
  <g
     transform="matrix(0.56742595,0,0,0.56742595,18.212411,249.06957)"
     id="g4222"
     style="stroke-width:1.76234448">
    <path
       style="fill:#ffffff;stroke-width:1.76234448"
       inkscape:connector-curvature="0"
       id="path5"
       d="M 2.803,1.481 85.928,1.63 c 1.162,0 2.199,-0.173 2.199,2.333 L 88.024,31.517 H 0.705 V 3.861 c 0,-1.235 0.118,-2.38 2.098,-2.38 z" />
    <g
       id="g7"
       style="stroke-width:1.76234448">
      <ellipse
         style="fill:#ffffff;stroke-width:1.76234448"
         id="ellipse9"
         ry="11.172"
         rx="11.101"
         cy="16.500999"
         cx="14.887" />
    </g>
    <path
       inkscape:connector-curvature="0"
       id="path11"
       d="m 24.271,5.06 c 3.484,2.592 5.754,6.744 5.755,11.44 -0.001,4.272 -1.88,8.095 -4.842,10.703 H 88.037 V 5.06 Z"
       style="stroke-width:1.76234448" />
    <g
       id="g15"
       style="stroke-width:1.76234448">
      <path
         style="fill:#ffffff;stroke-width:1.76234448"
         inkscape:connector-curvature="0"
         id="path17"
         d="m 36.739,8.557 c 0.392,0 0.728,0.059 1.002,0.173 0.276,0.116 0.5,0.268 0.674,0.456 0.173,0.189 0.299,0.405 0.379,0.647 0.079,0.241 0.118,0.493 0.118,0.753 0,0.253 -0.039,0.503 -0.118,0.749 -0.08,0.244 -0.206,0.462 -0.379,0.65 -0.174,0.188 -0.397,0.341 -0.674,0.456 -0.274,0.115 -0.61,0.173 -1.002,0.173 h -1.452 v 2.267 H 33.905 V 8.557 Z m -0.379,2.976 c 0.158,0 0.312,-0.012 0.457,-0.035 0.147,-0.023 0.276,-0.069 0.388,-0.137 0.111,-0.068 0.201,-0.164 0.269,-0.288 0.068,-0.124 0.101,-0.287 0.101,-0.487 0,-0.201 -0.033,-0.363 -0.101,-0.488 C 37.407,9.975 37.317,9.878 37.205,9.812 37.094,9.743 36.965,9.698 36.817,9.674 36.671,9.65 36.518,9.638 36.36,9.638 h -1.073 v 1.896 z" />
      <path
         style="fill:#ffffff;stroke-width:1.76234448"
         inkscape:connector-curvature="0"
         id="path19"
         d="m 44.751,14.398 c -0.476,0.417 -1.133,0.625 -1.972,0.625 -0.851,0 -1.509,-0.207 -1.976,-0.62 C 40.337,13.99 40.104,13.351 40.104,12.49 V 8.557 h 1.381 v 3.934 c 0,0.171 0.016,0.339 0.045,0.506 0.029,0.165 0.091,0.311 0.185,0.438 0.094,0.125 0.225,0.229 0.392,0.309 0.167,0.08 0.392,0.119 0.673,0.119 0.493,0 0.833,-0.109 1.021,-0.332 0.188,-0.221 0.282,-0.568 0.282,-1.04 V 8.557 h 1.382 v 3.934 c -0.001,0.855 -0.239,1.491 -0.714,1.907 z" />
      <path
         style="fill:#ffffff;stroke-width:1.76234448"
         inkscape:connector-curvature="0"
         id="path21"
         d="m 50.069,8.557 c 0.301,0 0.572,0.027 0.817,0.081 0.246,0.053 0.459,0.14 0.636,0.26 0.176,0.121 0.312,0.282 0.407,0.483 0.099,0.201 0.146,0.45 0.146,0.745 0,0.318 -0.071,0.584 -0.217,0.796 -0.144,0.212 -0.355,0.388 -0.637,0.522 0.387,0.112 0.676,0.309 0.865,0.589 0.191,0.281 0.286,0.619 0.286,1.015 0,0.319 -0.062,0.595 -0.185,0.829 -0.123,0.232 -0.289,0.422 -0.498,0.57 -0.207,0.148 -0.445,0.257 -0.713,0.328 -0.269,0.07 -0.541,0.105 -0.822,0.105 H 47.11 V 8.557 Z m -0.173,2.56 c 0.246,0 0.447,-0.059 0.606,-0.178 0.157,-0.118 0.237,-0.309 0.237,-0.576 0,-0.147 -0.026,-0.269 -0.08,-0.362 C 50.606,9.906 50.537,9.833 50.448,9.779 50.36,9.726 50.26,9.689 50.145,9.67 50.03,9.648 49.912,9.638 49.789,9.638 h -1.294 v 1.479 z m 0.078,2.685 c 0.135,0 0.264,-0.014 0.387,-0.04 0.125,-0.026 0.231,-0.072 0.326,-0.133 0.094,-0.062 0.168,-0.147 0.227,-0.254 0.056,-0.104 0.083,-0.241 0.083,-0.406 0,-0.325 -0.093,-0.557 -0.271,-0.696 -0.184,-0.138 -0.425,-0.208 -0.724,-0.208 h -1.505 v 1.737 z" />
      <path
         style="fill:#ffffff;stroke-width:1.76234448"
         inkscape:connector-curvature="0"
         id="path23"
         d="m 55.142,8.557 v 5.155 h 3.062 v 1.169 H 53.76 V 8.557 Z" />
      <path
         style="fill:#ffffff;stroke-width:1.76234448"
         inkscape:connector-curvature="0"
         id="path25"
         d="m 60.748,8.557 v 6.324 H 59.366 V 8.557 Z" />
      <path
         style="fill:#ffffff;stroke-width:1.76234448"
         inkscape:connector-curvature="0"
         id="path27"
         d="M 66.45,10.244 C 66.368,10.112 66.266,9.996 66.143,9.895 66.018,9.794 65.878,9.716 65.722,9.66 65.569,9.603 65.407,9.575 65.235,9.575 c -0.312,0 -0.574,0.062 -0.791,0.183 -0.217,0.12 -0.396,0.283 -0.527,0.486 -0.137,0.204 -0.232,0.436 -0.296,0.695 -0.062,0.26 -0.093,0.529 -0.093,0.806 0,0.267 0.031,0.525 0.093,0.776 0.062,0.251 0.159,0.477 0.296,0.677 0.134,0.201 0.311,0.361 0.527,0.483 0.217,0.12 0.479,0.181 0.791,0.181 0.424,0 0.754,-0.129 0.99,-0.389 0.236,-0.26 0.383,-0.602 0.437,-1.028 h 1.337 c -0.034,0.396 -0.126,0.753 -0.271,1.072 -0.146,0.318 -0.34,0.591 -0.58,0.815 -0.24,0.224 -0.521,0.395 -0.846,0.513 -0.322,0.119 -0.678,0.178 -1.064,0.178 -0.48,0 -0.914,-0.084 -1.299,-0.252 -0.383,-0.17 -0.709,-0.399 -0.972,-0.696 -0.265,-0.295 -0.468,-0.641 -0.606,-1.04 -0.143,-0.399 -0.213,-0.829 -0.213,-1.29 0,-0.472 0.07,-0.91 0.213,-1.314 0.141,-0.404 0.344,-0.757 0.606,-1.058 0.263,-0.302 0.589,-0.537 0.972,-0.709 0.385,-0.172 0.816,-0.258 1.299,-0.258 0.347,0 0.675,0.051 0.98,0.15 0.309,0.102 0.583,0.248 0.827,0.439 0.243,0.191 0.444,0.43 0.603,0.713 0.16,0.283 0.258,0.608 0.301,0.974 H 66.61 c -0.024,-0.159 -0.078,-0.305 -0.16,-0.438 z" />
      <path
         style="fill:#ffffff;stroke-width:1.76234448"
         inkscape:connector-curvature="0"
         id="path29"
         d="m 36.615,17.415 c 0.405,0 0.782,0.064 1.131,0.193 0.35,0.131 0.651,0.326 0.906,0.586 0.255,0.26 0.455,0.584 0.599,0.975 0.144,0.389 0.216,0.848 0.216,1.372 0,0.462 -0.059,0.888 -0.176,1.274 -0.118,0.391 -0.295,0.728 -0.532,1.012 -0.238,0.283 -0.534,0.506 -0.89,0.668 -0.354,0.162 -0.772,0.244 -1.254,0.244 h -2.71 v -6.324 z m -0.096,5.154 c 0.199,0 0.393,-0.031 0.581,-0.097 0.188,-0.066 0.354,-0.174 0.502,-0.323 0.146,-0.151 0.264,-0.349 0.352,-0.59 0.088,-0.242 0.132,-0.537 0.132,-0.887 0,-0.316 -0.031,-0.605 -0.093,-0.863 -0.062,-0.257 -0.162,-0.478 -0.304,-0.658 -0.141,-0.186 -0.326,-0.324 -0.559,-0.422 -0.231,-0.099 -0.517,-0.146 -0.858,-0.146 h -0.984 v 3.984 h 1.231 z" />
      <path
         style="fill:#ffffff;stroke-width:1.76234448"
         inkscape:connector-curvature="0"
         id="path31"
         d="m 40.8,19.289 c 0.141,-0.405 0.344,-0.759 0.606,-1.06 0.265,-0.304 0.589,-0.537 0.973,-0.709 0.385,-0.172 0.816,-0.258 1.298,-0.258 0.487,0 0.921,0.086 1.303,0.258 0.383,0.172 0.705,0.405 0.969,0.709 0.265,0.301 0.467,0.652 0.605,1.06 0.143,0.403 0.213,0.843 0.213,1.313 0,0.461 -0.07,0.892 -0.213,1.288 -0.141,0.397 -0.343,0.746 -0.605,1.041 -0.264,0.296 -0.586,0.526 -0.969,0.694 -0.382,0.168 -0.814,0.253 -1.303,0.253 -0.481,0 -0.913,-0.085 -1.298,-0.253 -0.384,-0.168 -0.708,-0.398 -0.973,-0.694 -0.263,-0.295 -0.466,-0.644 -0.606,-1.041 -0.141,-0.396 -0.211,-0.827 -0.211,-1.288 0,-0.47 0.07,-0.91 0.211,-1.313 z m 1.262,2.089 c 0.062,0.252 0.16,0.479 0.295,0.68 0.135,0.199 0.312,0.36 0.527,0.48 0.218,0.121 0.481,0.184 0.792,0.184 0.312,0 0.576,-0.062 0.792,-0.184 0.219,-0.12 0.395,-0.281 0.529,-0.48 0.134,-0.201 0.232,-0.428 0.295,-0.68 0.062,-0.25 0.092,-0.509 0.092,-0.773 0,-0.276 -0.029,-0.547 -0.092,-0.807 -0.062,-0.261 -0.161,-0.49 -0.295,-0.695 -0.137,-0.203 -0.312,-0.365 -0.529,-0.486 -0.216,-0.12 -0.48,-0.182 -0.792,-0.182 -0.311,0 -0.574,0.062 -0.792,0.182 -0.216,0.121 -0.393,0.283 -0.527,0.486 -0.135,0.205 -0.233,0.437 -0.295,0.695 -0.062,0.258 -0.093,0.527 -0.093,0.807 10e-4,0.264 0.032,0.523 0.093,0.773 z" />
      <path
         style="fill:#ffffff;stroke-width:1.76234448"
         inkscape:connector-curvature="0"
         id="path33"
         d="m 50.092,17.415 1.47,4.35 h 0.021 l 1.391,-4.35 h 1.944 v 6.324 h -1.294 v -4.482 h -0.019 l -1.541,4.482 h -1.062 l -1.54,-4.438 h -0.019 v 4.438 h -1.295 v -6.324 z" />
      <path
         style="fill:#ffffff;stroke-width:1.76234448"
         inkscape:connector-curvature="0"
         id="path35"
         d="m 59.765,17.415 2.35,6.324 h -1.436 l -0.475,-1.408 h -2.35 l -0.494,1.408 h -1.392 l 2.377,-6.324 z m 0.079,3.88 -0.793,-2.321 h -0.019 l -0.816,2.321 z" />
      <path
         style="fill:#ffffff;stroke-width:1.76234448"
         inkscape:connector-curvature="0"
         id="path37"
         d="m 64.547,17.415 v 6.324 h -1.382 v -6.324 z" />
      <path
         style="fill:#ffffff;stroke-width:1.76234448"
         inkscape:connector-curvature="0"
         id="path39"
         d="m 67.603,17.415 2.623,4.242 h 0.018 v -4.242 h 1.295 v 6.324 h -1.383 l -2.613,-4.234 h -0.018 v 4.234 H 66.23 v -6.324 z" />
    </g>
    <path
       inkscape:connector-curvature="0"
       id="path41"
       d="M 86.853,1 H 2.147 C 1.239,1 0.5,1.743 0.5,2.657 v 28.97 C 0.5,31.833 0.667,32 0.872,32 H 88.128 C 88.333,32 88.5,31.833 88.5,31.627 V 2.657 C 88.5,1.743 87.761,1 86.853,1 Z M 2.147,1.749 h 84.704 c 0.498,0 0.903,0.407 0.903,0.908 0,0 0,20.122 0,28.557 H 1.245 V 22.79 c 0,-8.436 0,-20.133 0,-20.133 0,-0.501 0.405,-0.908 0.902,-0.908 z"
       style="stroke-width:1.76234448" />
    <g
       id="g4213"
       transform="matrix(0.1332533,0,0,0.1332533,2.528981,3.5742669)"
       style="stroke-width:1.76234448">
      <circle
         r="98"
         cy="98"
         cx="98"
         id="circle-border"
         style="stroke-width:1.76234448" />
      <circle
         r="78"
         cy="98"
         cx="98"
         id="circle-inside"
         style="fill:#ffffff;stroke-width:1.76234448" />
      <circle
         r="55"
         cy="98"
         cx="98"
         id="c-border"
         style="stroke-width:1.76234448" />
      <circle
         r="30"
         cy="98"
         cx="98"
         id="c-inside"
         style="fill:#ffffff;stroke-width:1.76234448" />
      <rect
         y="85"
         x="123"
         height="25"
         width="31"
         id="c-cut"
         style="fill:#ffffff;stroke-width:1.76234448" />
      <rect
         transform="rotate(45,12.07107,179)"
         height="123"
         width="31"
         id="bar-margin"
         x="0"
         y="0"
         style="fill:#ffffff;stroke-width:1.76234448" />
      <rect
         transform="rotate(45,42.248735,195.49999)"
         height="175"
         width="25"
         id="bar"
         x="0"
         y="0"
         style="stroke-width:1.76234448" />
    </g>
  </g>
  <g
     id="g2155"
     transform="translate(255.89983,-60.760164)">
    <rect
       id="rect1312"
       style="opacity:1;fill:none;fill-opacity:1;fill-rule:evenodd;stroke:#000000;stroke-width:1.25;stroke-linecap:round;stroke-linejoin:miter;stroke-miterlimit:4;stroke-dasharray:none;stroke-dashoffset:0;stroke-opacity:1"
       y="179.03619"
       x="30.094984"
       ry="10.000003"
       rx="11.506416"
       height="61.01178"
       width="111.89979" />
    <text
       xml:space="preserve"
       id="text2275"
       style="font-style:normal;font-variant:normal;font-weight:normal;font-stretch:normal;line-height:0%;font-family:Arial;-inkscape-font-specification:'Arial, Normal';text-align:center;writing-mode:lr-tb;text-anchor:middle;fill:#000000;fill-opacity:1;stroke:none;stroke-width:1px;stroke-linecap:butt;stroke-linejoin:miter;stroke-opacity:1"
       y="205.58505"
       x="85.724564"><tspan
         style="font-size:16px;line-height:1"
         y="205.58505"
         x="85.724564"
         id="tspan4231"
         sodipodi:role="line">Banco de</tspan><tspan
         style="font-size:16px;line-height:1"
         y="221.58505"
         x="85.724564"
         id="tspan4233"
         sodipodi:role="line">Registradores</tspan></text>
  </g>
  <text
     xml:space="preserve"
     style="font-style:normal;font-variant:normal;font-weight:bold;font-stretch:normal;font-size:6.25px;line-height:100%;font-family:Arial;-inkscape-font-specification:'Arial, Bold';text-align:center;letter-spacing:0px;word-spacing:0px;writing-mode:lr-tb;text-anchor:middle;fill:#ff0000;fill-opacity:1;stroke:none;stroke-width:1px;stroke-linecap:butt;stroke-linejoin:miter;stroke-opacity:1"
     x="342.16608"
     y="128.06352"
     id="text24052"><tspan
       sodipodi:role="line"
       id="tspan24050"
       x="342.16608"
       y="128.06352"
       style="font-size:10.66666698px;fill:#ff0000;fill-opacity:1">Lê Operandos</tspan></text>
  <text
     xml:space="preserve"
     style="font-style:normal;font-variant:normal;font-weight:bold;font-stretch:normal;font-size:6.25px;line-height:100%;font-family:Arial;-inkscape-font-specification:'Arial, Bold';text-align:center;letter-spacing:0px;word-spacing:0px;writing-mode:lr-tb;text-anchor:middle;fill:#ff0000;fill-opacity:1;stroke:none;stroke-width:1px;stroke-linecap:butt;stroke-linejoin:miter;stroke-opacity:1"
     x="342.30569"
     y="259.25995"
     id="text24052-7"><tspan
       sodipodi:role="line"
       id="tspan24050-2"
       x="342.30569"
       y="259.25995"
       style="font-size:10.66666698px;fill:#ff0000;fill-opacity:1">Executa</tspan></text>
  <text
     xml:space="preserve"
     style="font-style:normal;font-variant:normal;font-weight:bold;font-stretch:normal;font-size:6.25px;line-height:100%;font-family:Arial;-inkscape-font-specification:'Arial, Bold';text-align:center;letter-spacing:0px;word-spacing:0px;writing-mode:lr-tb;text-anchor:middle;fill:#ff0000;fill-opacity:1;stroke:none;stroke-width:1px;stroke-linecap:butt;stroke-linejoin:miter;stroke-opacity:1"
     x="428.47516"
     y="59.258362"
     id="text24052-7-8"><tspan
       sodipodi:role="line"
       id="tspan24050-2-2"
       x="428.47516"
       y="59.258362"
       style="font-size:10.66666698px;line-height:104.99999523%;fill:#ff0000;fill-opacity:1">Escreve</tspan><tspan
       sodipodi:role="line"
       x="428.47516"
       y="70.458359"
       style="font-size:10.66666698px;line-height:104.99999523%;fill:#ff0000;fill-opacity:1"
       id="tspan24090">Resultado</tspan></text>
  <path
     style="fill:none;fill-rule:evenodd;stroke:#ff0000;stroke-width:2;stroke-linecap:butt;stroke-linejoin:miter;stroke-miterlimit:3.5;stroke-dasharray:none;stroke-opacity:1;marker-end:url(#Arrow2Send-8-9)"
     d="M 421.40608,74.555628 397.29639,91.426017"
     id="path948-3-0"
     inkscape:connector-curvature="0"
     sodipodi:nodetypes="cc" />
  <path
     style="fill:none;fill-rule:evenodd;stroke:#ff0000;stroke-width:2;stroke-linecap:butt;stroke-linejoin:miter;stroke-miterlimit:3.5;stroke-dasharray:none;stroke-opacity:1;marker-end:url(#Arrow2Send-8-9-2)"
     d="m 432.36863,73.248301 10.06366,69.211849"
     id="path948-3-0-6"
     inkscape:connector-curvature="0"
     sodipodi:nodetypes="cc" />
</svg>
