<svg xmlns="http://www.w3.org/2000/svg" width="274.107" height="231.902">
  <defs>
    <marker id="b" orient="auto" overflow="visible">
      <path fill-rule="evenodd" stroke="#000" stroke-linejoin="round" stroke-width=".375" d="M-5.231-2.42L1.324-.01-5.23 2.401c1.047-1.423 1.041-3.37 0-4.821z"/>
    </marker>
    <marker id="a" orient="auto" overflow="visible">
      <path fill-rule="evenodd" stroke="#000" stroke-linejoin="round" stroke-width=".375" d="M-5.231-2.42L1.324-.01-5.23 2.401c1.047-1.423 1.041-3.37 0-4.821z"/>
    </marker>
  </defs>
  <text x="160.17" y="141.609" font-family="arial" font-size="20" font-weight="400" letter-spacing="0" style="line-height:125%;-inkscape-font-specification:arial;text-align:start" word-spacing="0">
    <tspan x="160.17" y="141.609" font-size="7.5" style="-inkscape-font-specification:arial;text-align:center" text-anchor="middle">Habilita</tspan>
  </text>
  <path fill="none" stroke="#000" d="M173.353 149.254l10.727-10.614"/>
  <text x="177.76" y="154.447" font-family="arial" font-size="10" font-weight="400" letter-spacing="0" style="line-height:125%;-inkscape-font-specification:arial;text-align:start" word-spacing="0">
    <tspan x="177.76" y="154.447" style="-inkscape-font-specification:arial">1</tspan>
  </text>
  <g transform="translate(-28.879 27.16)">
    <path fill="none" stroke="#000" stroke-linecap="round" stroke-linejoin="round" stroke-miterlimit="10" d="M117.271 24.684h22.472v-41.345H117.27v41.344z"/>
    <path fill="#f33" stroke="#000" stroke-width="52.971" d="M23055 1559l94-95 95 95v850l-95 94-94-94v-850m1039 0l94-95 95 95v850l-95 94-94-94v-850m-945 992l95-95h850l94 95-94 94h-850l-95-94m-94 141l94-94 95 94v851l-95 94-94-94v-851m1039 0l94-94 95 94v851l-95 94-94-94v-851m-945 993l95-95h850l94 95-94 94h-850l-95-94m0-2268l95-95h850l94 95-94 94h-850l-95-94" transform="matrix(.01122 0 0 .01143 -137.06 -25.14)"/>
  </g>
  <g transform="translate(20.11 8)">
    <path fill="none" stroke="#000" stroke-linecap="round" stroke-linejoin="round" stroke-miterlimit="10" d="M33.978 94.385h91.082v-27.4H33.978v27.4z"/>
    <text x="79.421" y="78.756" font-family="Arial" font-size="8" font-weight="700" letter-spacing="0" style="line-height:100%;-inkscape-font-specification:'Arial, Bold';text-align:center" text-anchor="middle" word-spacing="0">
      <tspan x="79.421" y="78.756">Decodificador</tspan><tspan x="79.421" y="86.756">Binário - 7 segmentos</tspan>
    </text>
  </g>
  <text x="31.816" y="141.487" font-family="arial" font-size="20" font-weight="400" letter-spacing="0" style="line-height:125%;-inkscape-font-specification:arial;text-align:start" word-spacing="0">
    <tspan x="31.816" y="141.487" font-size="7.5" style="-inkscape-font-specification:arial">CLK</tspan>
  </text>
  <g transform="translate(20.11 8)">
    <text x="79.173" y="134.942" font-family="Arial" font-size="8" font-weight="700" letter-spacing="0" style="line-height:100%;-inkscape-font-specification:'Arial, Bold';text-align:center" text-anchor="middle" word-spacing="0">
      <tspan x="79.173" y="134.942">Registrador</tspan><tspan x="79.173" y="142.942">de 4 bits</tspan>
    </text>
    <g transform="translate(0 18)">
      <path fill="none" stroke="#000" stroke-linecap="round" stroke-linejoin="round" stroke-miterlimit="10" d="M33.978 129.265h91.082v-22.28H33.978v22.28z"/>
      <path fill="none" stroke="#000" stroke-linecap="round" stroke-linejoin="round" stroke-miterlimit="10" d="M34.055 121.623l5.625-3.498-5.625-3.498"/>
    </g>
  </g>
  <path fill="none" stroke="#000" stroke-linecap="square" stroke-linejoin="round" stroke-miterlimit="10" d="M53.725 143.895H30.609v59.143"/>
  <path fill="none" stroke="#000" stroke-linecap="round" stroke-linejoin="round" stroke-miterlimit="10" d="M99.264 203.446l.054-47.575"/>
  <path fill="none" stroke="#000" d="M93.868 179.73l10.728-10.612"/>
  <text x="101.508" y="180.061" font-family="arial" font-size="10" font-weight="400" letter-spacing="0" style="line-height:125%;-inkscape-font-specification:arial;text-align:start" word-spacing="0">
    <tspan x="101.508" y="180.061" style="-inkscape-font-specification:arial">4</tspan>
  </text>
  <path fill="none" stroke="#000" stroke-linecap="square" stroke-linejoin="round" stroke-miterlimit="10" d="M99.685 52.447v21.835"/>
  <g transform="translate(-165.5 -81.353)">
    <path fill="none" stroke="#000" d="M259.982 149.474l10.727-10.614"/>
    <text x="257.321" y="144.104" font-family="arial" font-size="10" font-weight="400" letter-spacing="0" style="line-height:125%;-inkscape-font-specification:arial;text-align:start" word-spacing="0">
      <tspan x="257.321" y="144.104" style="-inkscape-font-specification:arial">7</tspan>
    </text>
  </g>
  <path fill="none" stroke="#000" d="M93.868 121.73l10.728-10.612"/>
  <text x="101.508" y="122.061" font-family="arial" font-size="10" font-weight="400" letter-spacing="0" style="line-height:125%;-inkscape-font-specification:arial;text-align:start" word-spacing="0">
    <tspan x="101.508" y="122.061" style="-inkscape-font-specification:arial">4</tspan>
  </text>
  <path fill="none" stroke="#000" stroke-linecap="square" stroke-linejoin="round" stroke-miterlimit="10" d="M99.603 102.74v29.633M145.705 143.895h41.115"/>
  <g transform="translate(-234.276 36.067)">
    <path fill="none" stroke="#000" d="M259.982 149.474l10.727-10.614"/>
    <text x="257.321" y="144.104" font-family="arial" font-size="10" font-weight="400" letter-spacing="0" style="line-height:125%;-inkscape-font-specification:arial;text-align:start" word-spacing="0">
      <tspan x="257.321" y="144.104" style="-inkscape-font-specification:arial">1</tspan>
    </text>
  </g>
  <g transform="translate(20.11 8)">
    <path fill="none" stroke="#000" stroke-linecap="round" stroke-linejoin="round" stroke-miterlimit="10" d="M166.844 148.04h76.654v-27.329h-76.654v27.329z"/>
    <text x="204.829" y="132.47" font-family="Arial" font-size="8" font-weight="700" letter-spacing="0" style="line-height:100%;-inkscape-font-specification:'Arial, Bold';text-align:center" text-anchor="middle" word-spacing="0">
      <tspan x="204.829" y="132.47">Decodificador</tspan><tspan x="204.829" y="140.47">Endereços</tspan>
    </text>
  </g>
  <g transform="translate(-64.768 36.258)">
    <path fill="none" stroke="#000" d="M259.982 149.474l10.727-10.614"/>
    <text x="257.321" y="144.104" font-family="arial" font-size="10" font-weight="400" letter-spacing="0" style="line-height:125%;-inkscape-font-specification:arial;text-align:start" word-spacing="0">
      <tspan x="257.321" y="144.104" style="-inkscape-font-specification:arial">8</tspan>
    </text>
  </g>
  <path fill="none" stroke="#000" stroke-linecap="square" stroke-linejoin="round" stroke-miterlimit="10" d="M200.026 156.498v46.842"/>
  <text x="30.336" y="212.336" font-family="Arial" font-size="8" font-weight="700" letter-spacing="0" style="line-height:100%;-inkscape-font-specification:'Arial, Bold';text-align:center" text-anchor="middle" word-spacing="0">
    <tspan x="30.336" y="212.336" font-family="arial" font-weight="400" style="-inkscape-font-specification:arial">Barramento</tspan><tspan x="30.336" y="220.336" font-family="arial" font-weight="400" style="-inkscape-font-specification:arial">Controle</tspan>
  </text>
  <text x="98.811" y="212.336" font-family="Arial" font-size="8" font-weight="700" letter-spacing="0" style="line-height:100%;-inkscape-font-specification:'Arial, Bold';text-align:center" text-anchor="middle" word-spacing="0">
    <tspan x="98.811" y="212.336" font-family="arial" font-weight="400" style="-inkscape-font-specification:arial">Barramento</tspan><tspan x="98.811" y="220.336" font-family="arial" font-weight="400" style="-inkscape-font-specification:arial">Dados</tspan>
  </text>
  <text x="199.928" y="212.336" font-family="Arial" font-size="8" font-weight="700" letter-spacing="0" style="line-height:100%;-inkscape-font-specification:'Arial, Bold';text-align:center" text-anchor="middle" word-spacing="0">
    <tspan x="199.928" y="212.336" font-family="arial" font-weight="400" style="-inkscape-font-specification:arial">Barramento</tspan><tspan x="199.928" y="220.336" font-family="arial" font-weight="400" style="-inkscape-font-specification:arial">Endereços</tspan>
  </text>
  <g transform="translate(-16.768 36.258)">
    <path fill="none" stroke="#000" d="M259.982 149.474l10.727-10.614"/>
    <text x="257.321" y="144.104" font-family="arial" font-size="10" font-weight="400" letter-spacing="0" style="line-height:125%;-inkscape-font-specification:arial;text-align:start" word-spacing="0">
      <tspan x="257.321" y="144.104" style="-inkscape-font-specification:arial">2</tspan>
    </text>
  </g>
  <path fill="none" stroke="#000" stroke-linecap="square" stroke-linejoin="round" stroke-miterlimit="10" d="M248.026 156.498v46.842"/>
  <text x="247.928" y="212.336" font-family="Arial" font-size="8" font-weight="700" letter-spacing="0" style="line-height:100%;-inkscape-font-specification:'Arial, Bold';text-align:center" text-anchor="middle" word-spacing="0">
    <tspan x="247.928" y="212.336" font-family="arial" font-weight="400" style="-inkscape-font-specification:arial">Barramento</tspan><tspan x="247.928" y="220.336" font-family="arial" font-weight="400" style="-inkscape-font-specification:arial">Controle</tspan>
  </text>
  <text x="247.709" y="228.336" font-family="Arial" font-size="8" font-weight="700" letter-spacing="0" style="line-height:100%;-inkscape-font-specification:'Arial, Bold';text-align:center" text-anchor="middle" word-spacing="0">
    <tspan x="247.709" y="228.336" font-family="arial" font-weight="400" style="-inkscape-font-specification:arial">Rd e Wr</tspan>
  </text>
  <path fill="none" stroke="#000" stroke-linecap="square" stroke-linejoin="round" stroke-miterlimit="10" marker-end="url(#a)" d="M198.189 128.545v-21.754"/>
  <path fill="none" stroke="#000" stroke-linecap="square" stroke-linejoin="round" stroke-miterlimit="10" marker-end="url(#b)" d="M253.012 128.545v-21.754"/>
  <text x="223.943" y="89.193" font-family="Arial" font-size="8" font-weight="700" letter-spacing="0" style="line-height:100%;-inkscape-font-specification:'Arial, Bold';text-align:center" text-anchor="middle" word-spacing="0">
    <tspan x="223.943" y="89.193" font-weight="400" style="-inkscape-font-specification:Arial">Habilitação</tspan><tspan x="223.943" y="97.193" font-weight="400" style="-inkscape-font-specification:Arial">Outros Dispositivos</tspan>
  </text>
  <circle cx="215.28" cy="117.735" r="1" stroke="#000" stroke-linejoin="round" stroke-miterlimit="10"/>
  <circle cx="235.28" cy="117.735" r="1" stroke="#000" stroke-linejoin="round" stroke-miterlimit="10"/>
  <circle cx="225.28" cy="117.735" r="1" stroke="#000" stroke-linejoin="round" stroke-miterlimit="10"/>
</svg>
